<?xml version="1.0" encoding="UTF-8"?>
<svg width="76px" height="76px" viewBox="0 0 76 76" version="1.1" xmlns="http://www.w3.org/2000/svg" xmlns:xlink="http://www.w3.org/1999/xlink">
    <!-- Generator: Sketch 47 (45396) - http://www.bohemiancoding.com/sketch -->
    <title>Icons/ Thumbprint Copy</title>
    <desc>Created with Sketch.</desc>
    <defs></defs>
    <g id="Page-1" stroke="none" stroke-width="1" fill="none" fill-rule="evenodd" stroke-linecap="round">
        <g id="158---Fingerprint-Login---Confirmation" transform="translate(-150.000000, -126.000000)" stroke="#539C2F">
            <g id="Icons/-Thumbprint-Green" transform="translate(151.000000, 127.000000)">
                <g id="Page-1">
                    <path d="M1.49356667,26.557675 C0.520775,29.8676333 -0.000308333333,33.3733833 -0.000308333333,36.9993833 C-0.000308333333,41.0909667 0.66415,45.0253 1.889775,48.7052583" id="Stroke-1" stroke-width="2"></path>
                    <path d="M36.5845208,0 C22.1298542,0.160333333 9.66239583,8.61175 3.7161875,20.8202083" id="Stroke-3" stroke-width="2"></path>
                    <path d="M74,35.9431875 C73.495875,17.9380625 60.1065,3.14577083 42.735,0.4416875" id="Stroke-5" stroke-width="2"></path>
                    <path d="M34.817,68.5996958 C34.0800833,70.6408625 33.3354583,72.3814042 32.7002917,73.7457792" id="Stroke-7" stroke-width="2"></path>
                    <path d="M37,37 C37,37 39.41425,46.7664583 37.6166667,57.8787917 C37.346875,59.5545833 37.0061667,61.161 36.6238333,62.6810833" id="Stroke-9" stroke-width="2"></path>
                    <path d="M44.0745542,55.7739542 C43.9943875,56.4738708 43.8988042,57.1768708 43.7847208,57.8783292 C42.6639292,64.8019542 40.6952208,70.6479542 39.3693875,73.9995375" id="Stroke-11" stroke-width="2"></path>
                    <path d="M26.339375,72.4327417 C28.0799167,69.0102417 30.2135833,63.9088667 31.2542083,57.913325 C32.7897083,49.0533667 31.4577083,40.9627 30.9304583,38.090575 C30.86725,37.7359917 30.8333333,37.3721583 30.8333333,37.0006167 C30.8333333,33.595075 33.5944583,30.83395 37,30.83395 C39.9245417,30.83395 42.3711667,32.8674083 43.0063333,35.5977 C43.0063333,35.5977 44.4431667,41.8337417 44.4215833,49.6222417" id="Stroke-13" stroke-width="2"></path>
                    <path d="M68.9248333,48.0807292 C68.9695417,50.5366042 68.9387083,53.1882708 68.7845417,55.9571042" id="Stroke-15" stroke-width="2"></path>
                    <path d="M24.9045458,8.62824583 C28.6184208,7.04495417 32.7084625,6.16620417 37.0004625,6.16620417 C52.5666708,6.16620417 65.4827542,17.7718708 67.5778792,32.7599542 C67.5778792,32.7599542 68.2423375,36.3397042 68.6447125,41.9097458" id="Stroke-17" stroke-width="2"></path>
                    <path d="M6.052275,57.2840167 C6.42073333,56.3436 6.7414,55.3430583 6.98498333,54.2962667 C7.87606667,50.46985 7.1299,45.06785 6.5934,42.1386833 C6.31281667,40.4675167 6.16635833,38.7516417 6.16635833,37.0003083 C6.16635833,26.452225 11.463525,17.1421 19.5403167,11.5813083" id="Stroke-19" stroke-width="2"></path>
                    <path d="M43.1366042,13.102625 C41.1756042,12.6000417 39.1190208,12.3333333 37.0007708,12.3333333 C23.3770625,12.3333333 12.3341042,23.3762917 12.3341042,37 C12.3341042,38.2780417 12.4312292,39.5345 12.6193125,40.760125 C13.2066875,43.9806667 13.9682708,49.4520417 12.9507708,54.9881667 C12.4142708,57.9065417 11.4414792,60.5150417 10.3715625,62.7088333" id="Stroke-21" stroke-width="2"></path>
                    <path d="M61.5928208,64.6295958 C61.8132792,63.3484708 62.0106125,62.0257208 62.1832792,60.6675125 C63.9808625,46.4286792 61.3877792,33.2844292 61.3877792,33.2844292 C60.2176542,25.5437208 55.4539042,18.9839292 48.8463208,15.3594708" id="Stroke-23" stroke-width="2"></path>
                    <path d="M54.5440125,31.1163833 C54.7783458,31.8163 54.9725958,32.5362583 55.1236792,33.2716333 C55.8436375,37.037925 57.3853042,46.3727167 56.3739708,56.7188417 C55.8883458,61.6860917 54.9741375,66.1723417 54.0121375,69.8584667" id="Stroke-25" stroke-width="2"></path>
                    <path d="M19.3987917,53.1950542 C20.160375,46.1558042 18.8530417,40.6165958 18.8530417,40.6165958 C18.6217917,39.4464708 18.5,38.2378042 18.5,36.9998458 C18.5,26.7832208 26.783375,18.4998458 37,18.4998458 C42.9369583,18.4998458 48.22025,21.2964292 51.60575,25.6439292" id="Stroke-27" stroke-width="2"></path>
                    <path d="M15.1878833,66.9180458 C16.3009667,64.7581708 17.4155917,62.1620042 18.232675,59.2621292" id="Stroke-29" stroke-width="2"></path>
                    <path d="M32.7559458,25.4163792 C34.0786958,24.9322958 35.5078208,24.6671292 37.0001542,24.6671292 C42.9525292,24.6671292 47.9228625,28.8496708 49.0806542,34.4597958 C49.7389458,37.6171292 51.3114458,46.6929208 50.1921958,56.8340042 C49.4784042,63.2720042 47.9459875,68.8451292 46.6155292,72.7578792" id="Stroke-31" stroke-width="2"></path>
                    <path d="M20.5972833,70.18345 C22.430325,66.6838667 24.3296583,62.09895 25.1282417,57.0422833 C26.3353667,49.412575 25.4288667,42.5845333 24.8599917,39.2159917 C24.7212417,38.479075 24.6672833,37.7776167 24.6672833,37.0006167 C24.6672833,33.88645 25.8219917,31.042075 27.7244083,28.8714083" id="Stroke-33" stroke-width="2"></path>
                </g>
            </g>
        </g>
    </g>
</svg>