<?xml version="1.0" encoding="UTF-8"?>
<svg width="63px" height="63px" viewBox="0 0 63 63" version="1.1" xmlns="http://www.w3.org/2000/svg" xmlns:xlink="http://www.w3.org/1999/xlink">
    <!-- Generator: Sketch 46.2 (44496) - http://www.bohemiancoding.com/sketch -->
    <title>Camera-Icon-DepositCapture</title>
    <desc>Created with Sketch.</desc>
    <defs>
        <filter x="-12.7%" y="-16.4%" width="125.5%" height="125.5%" filterUnits="objectBoundingBox" id="filter-1">
            <feOffset dx="0" dy="-2" in="SourceAlpha" result="shadowOffsetOuter1"></feOffset>
            <feGaussianBlur stdDeviation="2" in="shadowOffsetOuter1" result="shadowBlurOuter1"></feGaussianBlur>
            <feColorMatrix values="0 0 0 0 0   0 0 0 0 0   0 0 0 0 0  0 0 0 0.5 0" type="matrix" in="shadowBlurOuter1" result="shadowMatrixOuter1"></feColorMatrix>
            <feMerge>
                <feMergeNode in="shadowMatrixOuter1"></feMergeNode>
                <feMergeNode in="SourceGraphic"></feMergeNode>
            </feMerge>
        </filter>
    </defs>
    <g id="Page-1" stroke="none" stroke-width="1" fill="none" fill-rule="evenodd">
        <g id="22---Capture-the-Check-Image-Back-Confirm" transform="translate(-156.000000, -10.000000)">
            <g id="Camera-Icon-DepositCapture" filter="url(#filter-1)" transform="translate(160.000000, 16.000000)">
                <g id="Current-Location-Icon" fill="#FFFFFF">
                    <circle id="Oval-4" cx="27.5" cy="27.5" r="27.5"></circle>
                </g>
                <path d="M40.34375,18.984375 C41.0729203,18.984375 41.6979141,19.2317684 42.21875,19.7265625 C42.7395859,20.2213566 43,20.8333297 43,21.5625 L43,37.34375 C43,38.0729203 42.7395859,38.6979141 42.21875,39.21875 C41.6979141,39.7395859 41.0729203,40 40.34375,40 L13.15625,40 C12.4270797,40 11.8020859,39.7395859 11.28125,39.21875 C10.7604141,38.6979141 10.5,38.0729203 10.5,37.34375 L10.5,21.5625 C10.5,20.8333297 10.7604141,20.2213566 11.28125,19.7265625 C11.8020859,19.2317684 12.4270797,18.984375 13.15625,18.984375 L18.546875,18.984375 L21.59375,15.859375 C22.0625023,15.2864555 22.7135375,15 23.546875,15 L30.109375,15 C30.7864617,15 31.3854141,15.2604141 31.90625,15.78125 L35.109375,18.984375 L40.34375,18.984375 Z M26.75,36.09375 C28.7291766,36.09375 30.421868,35.3776113 31.828125,33.9453125 C33.234382,32.5130137 33.9375,30.8073016 33.9375,28.828125 C33.9375,26.8489484 33.234382,25.1432363 31.828125,23.7109375 C30.421868,22.2786387 28.7291766,21.5625 26.75,21.5625 C24.7708234,21.5625 23.078132,22.2786387 21.671875,23.7109375 C20.265618,25.1432363 19.5625,26.8489484 19.5625,28.828125 C19.5625,30.8073016 20.265618,32.5130137 21.671875,33.9453125 C23.078132,35.3776113 24.7708234,36.09375 26.75,36.09375 Z M39.875,23.125 C40.6041703,23.125 40.96875,22.7604203 40.96875,22.03125 C40.96875,21.3020797 40.6041703,20.9375 39.875,20.9375 C39.1458297,20.9375 38.78125,21.3020797 38.78125,22.03125 C38.78125,22.7604203 39.1458297,23.125 39.875,23.125 Z M26.75,23.359375 C28.2604242,23.359375 29.5494738,23.8932238 30.6171875,24.9609375 C31.6849012,26.0286512 32.21875,27.3177008 32.21875,28.828125 C32.21875,30.3385492 31.6849012,31.6275988 30.6171875,32.6953125 C29.5494738,33.7630262 28.2604242,34.296875 26.75,34.296875 C25.2395758,34.296875 23.9505262,33.7630262 22.8828125,32.6953125 C21.8150988,31.6275988 21.28125,30.3385492 21.28125,28.828125 C21.28125,27.3177008 21.8150988,26.0286512 22.8828125,24.9609375 C23.9505262,23.8932238 25.2395758,23.359375 26.75,23.359375 Z" id="" fill="#00A0DD" transform="translate(26.750000, 27.500000) rotate(-90.000000) translate(-26.750000, -27.500000) "></path>
            </g>
        </g>
    </g>
</svg>