<?xml version="1.0" encoding="UTF-8"?>
<svg width="18px" height="19px" viewBox="0 0 18 19" version="1.1" xmlns="http://www.w3.org/2000/svg" xmlns:xlink="http://www.w3.org/1999/xlink">
    <!-- Generator: Sketch 46.2 (44496) - http://www.bohemiancoding.com/sketch -->
    <title></title>
    <desc>Created with Sketch.</desc>
    <defs></defs>
    <g id="Bill-Pay" stroke="none" stroke-width="1" fill="none" fill-rule="evenodd">
        <g id="424---Bill-Pay-Scheduled" transform="translate(-170.000000, -513.000000)" fill="#A9B7C7">
            <path d="M178.9375,513.8125 C181.401054,513.8125 183.506502,514.686189 185.253906,516.433594 C187.001311,518.180998 187.875,520.286446 187.875,522.75 C187.875,525.213554 187.001311,527.319002 185.253906,529.066406 C183.506502,530.813811 181.401054,531.6875 178.9375,531.6875 C176.473946,531.6875 174.368498,530.813811 172.621094,529.066406 C170.873689,527.319002 170,525.213554 170,522.75 C170,520.286446 170.873689,518.180998 172.621094,516.433594 C174.368498,514.686189 176.473946,513.8125 178.9375,513.8125 Z M179.96875,527.21875 L179.96875,525.5 L177.90625,525.5 L177.90625,527.21875 L179.96875,527.21875 Z M179.96875,523.4375 L179.96875,517.9375 L177.90625,517.9375 L177.90625,523.4375 L179.96875,523.4375 Z" id=""></path>
        </g>
    </g>
</svg>