<?xml version="1.0" encoding="UTF-8"?>
<svg width="13px" height="14px" viewBox="0 0 13 14" version="1.1" xmlns="http://www.w3.org/2000/svg" xmlns:xlink="http://www.w3.org/1999/xlink">
    <!-- Generator: Sketch 46.2 (44496) - http://www.bohemiancoding.com/sketch -->
    <title></title>
    <desc>Created with Sketch.</desc>
    <defs></defs>
    <g id="Bill-Pay" stroke="none" stroke-width="1" fill="none" fill-rule="evenodd">
        <g id="424---Bill-Pay-Scheduled" transform="translate(-168.000000, -514.000000)" fill="#A9B7C7">
            <path d="M174.5,514.8125 C176.291676,514.8125 177.82291,515.44791 179.09375,516.71875 C180.36459,517.98959 181,519.520824 181,521.3125 C181,523.104176 180.36459,524.63541 179.09375,525.90625 C177.82291,527.17709 176.291676,527.8125 174.5,527.8125 C172.708324,527.8125 171.17709,527.17709 169.90625,525.90625 C168.63541,524.63541 168,523.104176 168,521.3125 C168,519.520824 168.63541,517.98959 169.90625,516.71875 C171.17709,515.44791 172.708324,514.8125 174.5,514.8125 Z M175.25,524.5625 L175.25,523.3125 L173.75,523.3125 L173.75,524.5625 L175.25,524.5625 Z M175.25,521.8125 L175.25,517.8125 L173.75,517.8125 L173.75,521.8125 L175.25,521.8125 Z" id=""></path>
        </g>
    </g>
</svg>