<?xml version="1.0" encoding="UTF-8"?>
<svg width="28px" height="24px" viewBox="0 0 28 24" version="1.1" xmlns="http://www.w3.org/2000/svg" xmlns:xlink="http://www.w3.org/1999/xlink">
    <!-- Generator: Sketch 46.2 (44496) - http://www.bohemiancoding.com/sketch -->
    <title>map icon</title>
    <desc>Created with Sketch.</desc>
    <defs></defs>
    <g id="Page-1" stroke="none" stroke-width="1" fill="none" fill-rule="evenodd">
        <g id="133---List" transform="translate(-337.000000, -81.000000)" fill-rule="nonzero" fill="#2B9FDE">
            <g id="map-icon" transform="translate(337.000000, 81.000000)">
                <path d="M27.5105924,4.52614699 L20.9902717,0.14386637 C20.7006682,-0.0479554566 20.343902,-0.0479554566 20.0529265,0.14386637 L13.9980668,4.20947884 L7.94227171,0.14386637 C7.65273051,-0.0479554566 7.2909755,-0.0479554566 7.00299332,0.14386637 L0.457977728,4.52614699 C0.183652561,4.710049 0,5.04199555 0,5.40231626 L0,22.9238307 C0,23.2920089 0.191447661,23.6314388 0.477870824,23.8137817 C0.765977728,23.9931938 1.12530067,23.9902004 1.40729621,23.7998753 L7.46801782,19.7341381 L13.5283029,23.7998753 C13.8192784,23.9931938 14.1793497,23.9931938 14.4689532,23.7998753 L20.527804,19.7341381 L26.5862183,23.7998753 C26.7303341,23.8965345 26.8925345,23.9466102 27.056294,23.9466102 C27.2093898,23.9466102 27.349951,23.9000267 27.4908864,23.8137817 C27.7773719,23.6314388 27.9377016,23.2920713 27.9377016,22.9238307 L27.9377016,5.40231626 C27.9376392,5.04199555 27.7864143,4.710049 27.5105924,4.52614699 Z M6.42316258,18.0377372 L1.99554566,21.1186102 L1.99554566,6.04288641 L6.42316258,2.9605167 L6.42316258,18.0377372 Z M8.41870824,18.0076793 L8.41870824,10.3560089 C8.4914833,10.4031537 8.56276169,10.4511715 8.630049,10.4995011 L9.21206236,9.68906013 C8.96860579,9.51420045 8.69496659,9.34601336 8.41870824,9.20857016 L8.41870824,2.9304588 L12.9710468,5.9856392 L12.9710468,12.7564009 C12.6360445,12.6407216 12.3108953,12.4838842 11.9799465,12.2773452 L11.4516882,13.1238307 C11.878735,13.3902984 12.3011047,13.5894788 12.7428062,13.732784 L12.9710468,13.02898 L12.9710468,21.0614254 L8.41870824,18.0076793 Z M14.9665924,21.061363 L14.9665924,13.9918307 C14.9883563,13.9905212 15.0098085,13.9899599 15.0316347,13.9884633 C15.2131047,13.9761158 15.3918931,13.9562227 15.5628241,13.9294699 L15.4082316,12.9437327 C15.2667973,12.9658708 15.1182539,12.9823341 14.9665924,12.9927483 L14.9665924,5.9856392 L19.518931,2.9304588 L19.518931,10.3381737 L19.2168552,10.0655323 C19.0299599,10.2725078 18.8531047,10.4755546 18.6821114,10.6719911 C18.5694878,10.801265 18.4589844,10.9281693 18.349167,11.0520802 L19.0958753,11.7139154 C19.2075635,11.5878842 19.3200624,11.4587973 19.4345568,11.3272784 C19.4621826,11.2955367 19.4909933,11.262735 19.5189933,11.2306815 L19.5189933,18.0077416 L14.9665924,21.061363 Z M25.9420935,21.0562494 L21.5144766,18.0356169 L21.5144766,9.49779955 C21.7505122,9.39085078 21.9933452,9.31121604 22.240294,9.26132739 L22.0428597,8.28332294 C21.8646325,8.31930512 21.6882138,8.36682405 21.5144766,8.42556793 L21.5144766,2.95833408 L25.9420935,5.98040089 L25.9420935,21.0562494 Z" id="Shape"></path>
                <path d="M6.54816927,10.0638129 C6.68648552,9.98929176 6.4637951,9.9970245 6.6112784,9.94925612 L6.30396437,9 C6.09929621,9.06622717 5.89849443,9.152098 5.70710913,9.25524276 C5.46864143,9.38383073 5.22412472,9.56180846 5,9.76990646 L5.67898441,10.5010245 C5.84212027,10.3496125 6.38316258,10.1528018 6.54816927,10.0638129 Z" id="Shape"></path>
                <path d="M17,12.6589042 L17.4355902,13.556588 C17.846922,13.356971 18.2364276,13.0923118 18.6263697,12.7475189 L17.9654076,12 C17.6443742,12.2838664 17.3285791,12.4993853 17,12.6589042 Z" id="Shape"></path>
                <path d="M3.96559465,12.5802851 C4.08364365,12.210735 4.18560356,11.8915724 4.41016481,11.5635546 L3.58675278,11 C3.2796882,11.4486236 3.14517595,11.869559 3.01509131,12.276588 L3,12.3238575 L3.9502539,12.6281158 L3.96559465,12.5802851 Z" id="Shape"></path>
                <path d="M9.9485078,11.224686 C9.88571047,11.1496036 9.82291314,11.0745212 9.75942984,11 L9,11.6472428 C9.06148775,11.7193318 9.12228953,11.7920445 9.18309131,11.8647572 C9.40715367,12.1326592 9.63882405,12.4097283 9.90710022,12.6635367 L10.5928196,11.9386548 C10.3668864,11.7249443 10.1636526,11.4819243 9.9485078,11.224686 Z" id="Shape"></path>
                <polygon id="Shape" points="23.7054254 10.7011581 24.3504855 10.0561604 24.9955457 10.7011581 25.700971 9.99554566 25.0560356 9.35061024 25.700971 8.70561247 24.9955457 8 24.3504855 8.64499777 23.7054254 8 23 8.70561247 23.6449354 9.35061024 23 9.99554566"></polygon>
            </g>
        </g>
    </g>
</svg>