<?xml version="1.0" encoding="UTF-8"?>
<svg width="32px" height="51px" viewBox="0 0 32 51" version="1.1" xmlns="http://www.w3.org/2000/svg" xmlns:xlink="http://www.w3.org/1999/xlink">
    <!-- Generator: Sketch 46.2 (44496) - http://www.bohemiancoding.com/sketch -->
    <title>PenFed Branch Icon</title>
    <desc>Created with Sketch.</desc>
    <defs></defs>
    <g id="Page-1" stroke="none" stroke-width="1" fill="none" fill-rule="evenodd">
        <g id="128---Map" transform="translate(-187.000000, -316.000000)">
            <g id="PenFed-Branch-Icon" transform="translate(188.000000, 317.000000)">
                <path d="M15,0 C6.71416597,0 0,6.9921875 0,15.625 C0,30.546875 15,50 15,50 C15,50 30,30.546875 30,15.625 C30,6.9921875 23.285834,0 15,0 Z" id="Shape-Copy-5" stroke="#235793" fill="#0F2D52" fill-rule="nonzero"></path>
                <g id="Group-2" transform="translate(5.000000, 5.000000)" fill="#FFFFFF">
                    <path d="M19.6525508,6.61657261 L19.6528066,6.61657261 C19.6448784,6.6069221 19.6356716,6.59854138 19.6277434,6.58914483 C19.5121461,6.4499742 19.3732758,6.33137442 19.2111325,6.24248808 C19.0241819,6.12185661 18.8413233,6.02789104 18.7349327,5.95144878 C18.7287948,5.94687749 18.9653603,6.1251581 18.6359589,7.23623743 L18.5282897,7.56892632 L18.4973443,7.66441565 C18.433152,7.85463243 18.4062986,7.94301086 18.3981147,7.97247033 L18.3922326,7.98973968 L17.9311218,9.41725439 L17.7738378,9.90435157 L17.3129828,11.3308504 L15.3242987,17.5043881 C14.9181735,18.7152741 14.4079594,18.8823804 14.4079594,18.8823804 C15.059857,19.0385664 15.6409128,18.8933008 15.6664874,18.8864438 L15.6662317,18.8836502 C16.1084172,18.7594633 16.4933155,18.4323616 16.6766857,17.9777714 C16.6777087,17.9775174 16.6782202,17.9772635 16.6789874,17.9772635 L19.9177599,8.04383337 C20.0755554,7.53591139 19.9566333,7.00233935 19.6525508,6.61657261" id="Fill-29"></path>
                    <path d="M18.009815,5.45708832 L18.0103265,5.45632644 C18.0082805,5.45327891 18.0052115,5.4507393 18.0029098,5.44794573 C17.9924242,5.43473976 17.9837288,5.4207719 17.9727318,5.40807385 C17.8566229,5.27245869 17.7164739,5.15919208 17.5561209,5.07386119 C17.3735179,4.9572931 17.1965414,4.8661211 17.0927084,4.79120261 C17.0863147,4.78663131 17.3292738,4.96846738 16.9822259,6.11510125 L16.890413,6.3972519 L16.8656056,6.47420208 C16.7945081,6.68245009 16.765353,6.77946319 16.7561461,6.81146228 L16.2917107,8.24177056 L16.1359611,8.72023307 L15.6712699,10.1513032 L13.2442365,17.6426445 C12.8593382,18.726042 12.4092246,18.8669904 12.4092246,18.8669904 C12.5552557,18.9068623 12.6936145,18.9299727 12.8219992,18.9424168 L12.8204648,18.9469881 C12.8245567,18.9459723 12.8278814,18.9444485 12.8317176,18.9431787 C13.3040812,18.9871139 13.6311809,18.8807043 13.6311809,18.8807043 C14.0697859,18.7567713 14.4516153,18.4324631 14.6349855,17.9819364 C14.6462383,17.9562863 16.9126629,11.0429603 16.9126629,11.0429603 L17.3799116,9.61976289 L17.5387301,9.1359672 L18.006746,7.71150002 L18.1438261,7.29373419 L18.2793717,6.88130155 C18.437423,6.37312561 18.3144089,5.8426011 18.009815,5.45708832" id="Fill-30"></path>
                    <path d="M16.3636521,4.24886892 C16.1010006,3.92303697 15.6421915,3.72545532 15.4457783,3.58374509 C15.4450111,3.58323717 15.449103,3.5862847 15.4554967,3.59466542 C15.4964161,3.64799722 15.6383553,3.92430678 15.3255775,4.94091262 C15.2992356,5.02675143 15.2698248,5.11690758 15.2368335,5.21366672 C15.1299315,5.52375308 15.1053798,5.61771865 15.1053798,5.61771865 L14.6371082,7.05589973 L14.4844276,7.52572756 L14.0166674,8.96238487 L11.1546094,17.7743232 C10.7899151,18.7508032 10.4781602,18.9001323 10.4781602,18.9001323 C10.562045,18.9161318 10.6638321,18.9308616 10.774826,18.941274 L10.7730358,18.9471151 C10.7784065,18.9455913 10.7830099,18.9440676 10.7883806,18.9422898 C10.8722654,18.9501626 10.9602422,18.9560037 11.0523109,18.9567656 C11.7901392,18.9676859 12.3468992,18.6195054 12.5885795,17.9818094 C12.5903697,17.9802856 12.5919042,17.9787618 12.5942059,17.9772381 L15.2621524,9.85734339 L15.7327258,8.42830491 L15.8889868,7.9531439 L16.3600717,6.52334353 L16.49485,6.11395842 L16.6383238,5.67816136 C16.7971423,5.16744582 16.6736168,4.63336586 16.3636521,4.24886892" id="Fill-31"></path>
                    <path d="M15.4554711,3.59456383 L10.9635413,0.358592916 C10.524169,0.0513001197 9.97456997,-0.000253960989 9.5101345,0.169899901 L9.50860003,0.167360291 C9.48328113,0.176756848 8.91501263,0.40329005 8.47078113,0.921370466 C8.47078113,0.921370466 9.00068767,0.751724526 10.0847967,1.52986099 C10.3520517,1.7218555 10.4310773,1.77899672 10.4310773,1.77899672 L10.4272411,1.7726477 L15.2365522,5.21356513 L15.3255519,4.94081103 C15.6383298,3.92445915 15.4963905,3.64789564 15.4554711,3.59456383" id="Fill-32"></path>
                    <path d="M15.1052008,5.61782023 L9.38926875,1.49349378 C8.95040793,1.18645495 8.40157616,1.1346469 7.93739644,1.30403888 C7.93739644,1.30403888 7.38907616,1.47749424 6.93205734,2.04636685 C6.93205734,2.04636685 7.39572556,1.89145065 8.38444115,2.57358986 L14.6374406,7.05574735 L15.1052008,5.61782023 Z" id="Fill-33"></path>
                    <path d="M14.4843253,7.52567676 L7.75666046,2.66080007 C7.15744664,2.24151048 6.46207218,2.27985859 5.83907395,2.74359135 C5.65800549,2.87641295 5.50353467,3.02091675 5.39637693,3.13494523 C5.39637693,3.13494523 5.74700524,3.07170895 6.64697682,3.66724747 L14.0165651,8.96258804 L14.4843253,7.52567676 Z" id="Fill-34"></path>
                    <path d="M10.6263652,17.7867419 C10.2614151,18.7632219 9.94914877,18.9135668 9.94914877,18.9135668 L3.89205102,18.9148366 L0.00010229856,7.02082771 L4.95544456,3.45927881 C4.95544456,3.45927881 5.32499811,3.3422028 6.04773743,3.86079114 C6.22624842,3.98878747 6.27944367,4.0276435 6.27944367,4.0276435 L9.74531889,6.54795235 L6.36077103,8.97759713 L7.82159447,13.4427392 L12.0370624,13.4427392 L10.624575,17.79944" id="Fill-35"></path>
                </g>
            </g>
        </g>
    </g>
</svg>