<?xml version="1.0" encoding="UTF-8"?>
<svg width="13px" height="17px" viewBox="0 0 13 17" version="1.1" xmlns="http://www.w3.org/2000/svg" xmlns:xlink="http://www.w3.org/1999/xlink">
    <!-- Generator: Sketch 46.2 (44496) - http://www.bohemiancoding.com/sketch -->
    <title>Recurring</title>
    <desc>Created with Sketch.</desc>
    <defs></defs>
    <g id="Symbols" stroke="none" stroke-width="1" fill="none" fill-rule="evenodd">
        <g id="Icons/-BillPay/-Recurring" transform="translate(-3.000000, -1.000000)" fill="#0F2D52">
            <path d="M10.0976563,10.796875 L10.0976563,12.8359375 C10.9648482,12.6953118 11.6855441,12.291019 12.2597657,11.6230469 C12.8339873,10.9550748 13.1210938,10.1640671 13.1210938,9.25 C13.1210938,8.75781004 13.0039075,8.2421902 12.7695313,7.703125 C12.5820304,7.35156074 12.4765627,7.15234398 12.4531251,7.10546875 L14.1054688,5.59375 C14.1289065,5.61718762 14.1640624,5.66406215 14.2109376,5.734375 C14.984379,6.76563016 15.3710938,7.93749344 15.3710938,9.25 L15.3710938,9.390625 C15.3476562,10.6328187 14.9785193,11.7460888 14.263672,12.7304688 C13.5488246,13.7148487 12.6171933,14.406248 11.4687501,14.8046875 C10.9296849,14.9921884 10.4726582,15.0976561 10.0976563,15.1210938 L10.0976563,17.125 L7.42578134,14.7695312 L6.51171884,13.9609375 L8.05859384,12.5898438 L10.0976563,10.796875 Z M3.62890634,9.109375 C3.65234396,7.84374367 4.03319952,6.71875492 4.77148446,5.734375 C5.50976941,4.74999508 6.45311935,4.05859574 7.60156259,3.66015625 C8.07031493,3.49609293 8.50390435,3.40234387 8.90234384,3.37890625 L8.90234384,1.375 L11.5742188,3.73046875 L12.4882813,4.5390625 L10.9414063,5.91015625 L8.86718759,7.703125 L8.90234384,5.6640625 C8.035152,5.8046882 7.31445609,6.21484035 6.74023446,6.89453125 C6.16601284,7.57422215 5.87890634,8.35937055 5.87890634,9.25 C5.87890634,9.76562758 5.99609267,10.2929661 6.23046884,10.8320312 C6.37109454,11.1367203 6.47656224,11.3242184 6.54687509,11.3945312 L4.89453134,12.9414062 C4.89453134,12.9179686 4.88281271,12.8886721 4.85937509,12.8535156 C4.83593747,12.8183592 4.81250021,12.7890626 4.78906259,12.765625 C4.01562122,11.6874946 3.62890634,10.5156313 3.62890634,9.25 L3.62890634,9.109375 Z" id="Recurring"></path>
        </g>
    </g>
</svg>